<?xml version="1.0" encoding="UTF-8"?>
<svg version="1.1" xmlns="http://www.w3.org/2000/svg" width="500" height="500">
<path d="M0 0 C165 0 330 0 500 0 C500 165 500 330 500 500 C335 500 170 500 0 500 C0 335 0 170 0 0 Z " fill="#000000" transform="translate(0,0)"/>
<path d="M0 0 C3.29159316 -0.05790353 6.58305603 -0.09356261 9.875 -0.125 C10.81214844 -0.14175781 11.74929688 -0.15851563 12.71484375 -0.17578125 C13.61074219 -0.18222656 14.50664062 -0.18867188 15.4296875 -0.1953125 C16.25710449 -0.20578613 17.08452148 -0.21625977 17.93701172 -0.22705078 C20 0 20 0 22 2 C22.625 4.125 22.625 4.125 23 6 C23.7425 5.360625 24.485 4.72125 25.25 4.0625 C30.72114374 -0.0408578 37.38469777 0.34554497 44 1 C47.775212 2.45532982 49.7508162 4.62622429 52 8 C52.24050903 10.03117371 52.24050903 10.03117371 52.22705078 12.37963867 C52.22689972 13.26032516 52.22674866 14.14101166 52.22659302 15.04838562 C52.21627045 15.99534805 52.20594788 16.94231049 52.1953125 17.91796875 C52.1924826 18.89034988 52.18965271 19.86273102 52.18673706 20.86457825 C52.17553599 23.97234366 52.15043148 27.07982159 52.125 30.1875 C52.11497011 32.29361563 52.10584427 34.39973578 52.09765625 36.50585938 C52.07559688 41.6706838 52.04106746 46.83529315 52 52 C53.65 52.66 55.3 53.32 57 54 C57 54.66 57 55.32 57 56 C48.42 56 39.84 56 31 56 C31.33 55.01 31.66 54.02 32 53 C34.0625 52.3125 34.0625 52.3125 36 52 C35.88207974 45.89430893 35.75785627 39.78879181 35.62768555 33.68334961 C35.58426666 31.60460943 35.54259688 29.52583197 35.50268555 27.44702148 C35.44515079 24.46586855 35.38140881 21.48490451 35.31640625 18.50390625 C35.29969376 17.56849503 35.28298126 16.6330838 35.26576233 15.66932678 C35.2358445 14.37810158 35.2358445 14.37810158 35.20532227 13.06079102 C35.18977798 12.29912125 35.1742337 11.53745148 35.15821838 10.75270081 C35.18620671 8.97264994 35.18620671 8.97264994 34 8 C31.93227266 7.80058132 31.93227266 7.80058132 29.5625 7.8125 C28.75941406 7.79832031 27.95632813 7.78414062 27.12890625 7.76953125 C24.78369367 7.79837644 24.78369367 7.79837644 23 10 C22.68858493 11.88265776 22.68858493 11.88265776 22.7253418 14.05078125 C22.71580978 14.88504639 22.70627777 15.71931152 22.69645691 16.57885742 C22.69736832 17.48095947 22.69827972 18.38306152 22.69921875 19.3125 C22.69279106 20.69949097 22.69279106 20.69949097 22.68623352 22.11450195 C22.68048497 24.07144348 22.67999381 26.02840639 22.68432617 27.98535156 C22.68748737 30.98799871 22.66402938 33.9896622 22.63867188 36.9921875 C22.63639915 38.89062375 22.63569526 40.78906266 22.63671875 42.6875 C22.627509 43.58960205 22.61829926 44.4917041 22.60881042 45.42114258 C22.61815361 46.67254028 22.61815361 46.67254028 22.62768555 47.94921875 C22.62705612 48.68487061 22.6264267 49.42052246 22.6257782 50.1784668 C22.86305351 52.41671351 22.86305351 52.41671351 26 54 C26 54.66 26 55.32 26 56 C10.49 56 -5.02 56 -21 56 C-21.33 54.68 -21.66 53.36 -22 52 C-22.763125 52.639375 -23.52625 53.27875 -24.3125 53.9375 C-28.49409113 57.14662807 -31.81210067 57.52758298 -37 57 C-39.97551795 55.22396702 -42.42755188 53.14489623 -44 50 C-44.17412207 48.06753048 -44.26705542 46.1272659 -44.3125 44.1875 C-44.34988281 43.14980469 -44.38726562 42.11210937 -44.42578125 41.04296875 C-43.8865624 37.18928541 -42.76003691 35.71411283 -40 33 C-37.1953125 31.3046875 -37.1953125 31.3046875 -34.125 29.875 C-33.11695313 29.39804688 -32.10890625 28.92109375 -31.0703125 28.4296875 C-30.05710937 27.95789063 -29.04390625 27.48609375 -28 27 C-25.9972325 26.00555425 -23.99641155 25.00714493 -22 24 C-21.97104024 20.87501937 -21.95321517 17.7500731 -21.9375 14.625 C-21.92912109 13.73554688 -21.92074219 12.84609375 -21.91210938 11.9296875 C-21.90888672 11.07890625 -21.90566406 10.228125 -21.90234375 9.3515625 C-21.89710693 8.56604004 -21.89187012 7.78051758 -21.88647461 6.97119141 C-21.87426047 4.92227332 -21.87426047 4.92227332 -23 3 C-25.31 3 -27.62 3 -30 3 C-30.39325819 9.97669157 -29.63096039 15.51656189 -27 22 C-30.73960184 23.3582089 -33.40529248 22.62928896 -37.1875 21.625 C-38.25355469 21.34914062 -39.31960938 21.07328125 -40.41796875 20.7890625 C-43 20 -43 20 -44 19 C-44.58419826 15.42178565 -44.62207132 12.98344801 -42.6484375 9.86328125 C-38.31000183 4.69347135 -34.3299661 1.40264296 -27.4140625 0.56640625 C-14.25006956 0.55283512 -14.25006956 0.55283512 -8 5 C-4.23002594 9.56428536 -4.60937892 14.04456038 -4.70703125 19.67578125 C-4.71127609 20.6009404 -4.71552094 21.52609955 -4.71989441 22.47929382 C-4.73664007 25.4239963 -4.77428478 28.3680056 -4.8125 31.3125 C-4.82755215 33.31314113 -4.84123963 35.31379303 -4.85351562 37.31445312 C-4.88653017 42.20990107 -4.93828425 47.10483315 -5 52 C0.05009595 52.93786082 0.05009595 52.93786082 5 52 C5 36.16 5 20.32 5 4 C2.525 3.01 2.525 3.01 0 2 C0 1.34 0 0.68 0 0 Z " fill="#D0174F" transform="translate(337,212)"/>
<path d="M0 0 C3.29159316 -0.05790353 6.58305603 -0.09356261 9.875 -0.125 C10.81214844 -0.14175781 11.74929687 -0.15851563 12.71484375 -0.17578125 C13.61074219 -0.18222656 14.50664062 -0.18867188 15.4296875 -0.1953125 C16.25710449 -0.20578613 17.08452148 -0.21625977 17.93701172 -0.22705078 C20 0 20 0 22 2 C22.625 4.125 22.625 4.125 23 6 C23.7425 5.360625 24.485 4.72125 25.25 4.0625 C30.487127 0.13465475 36.64967117 0.33626507 43 1 C47.06717569 2.45668349 49.57408245 4.36112367 52 8 C52.47050781 7.57847656 52.94101562 7.15695313 53.42578125 6.72265625 C54.04839844 6.17480469 54.67101562 5.62695312 55.3125 5.0625 C56.23482422 4.24458984 56.23482422 4.24458984 57.17578125 3.41015625 C61.91481643 -0.25320927 68.32344686 0.58702325 74 1 C77.58623359 2.1954112 79.26424989 3.10177587 81.6340332 5.99487305 C83.59745774 10.31440703 83.37233599 14.20561812 83.29296875 18.89453125 C83.28872391 19.84188644 83.28447906 20.78924164 83.28010559 21.76530457 C83.26335689 24.78132947 83.22571146 27.79667816 83.1875 30.8125 C83.17244825 32.86131845 83.1587607 34.91014741 83.14648438 36.95898438 C83.11346579 41.9729155 83.06170947 46.98634322 83 52 C84.65 52.66 86.3 53.32 88 54 C88 54.66 88 55.32 88 56 C79.42 56 70.84 56 62 56 C62.33 55.01 62.66 54.02 63 53 C64.32 52.67 65.64 52.34 67 52 C66.67 37.48 66.34 22.96 66 8 C62.7 8 59.4 8 56 8 C52.76437709 11.1270813 52.76437709 11.1270813 52.56762695 15.10424805 C52.54783279 15.92487228 52.52803864 16.74549652 52.50764465 17.59098816 C52.49805977 18.9129998 52.49805977 18.9129998 52.48828125 20.26171875 C52.47033005 21.16751175 52.45237885 22.07330475 52.43388367 23.00654602 C52.37969341 25.90014996 52.34585714 28.79358815 52.3125 31.6875 C52.27933461 33.64911165 52.24484568 35.61070141 52.20898438 37.57226562 C52.12396194 42.38139097 52.0571924 47.19046641 52 52 C53.65 52.66 55.3 53.32 57 54 C57 54.66 57 55.32 57 56 C48.42 56 39.84 56 31 56 C31.33 55.01 31.66 54.02 32 53 C34.0625 52.3125 34.0625 52.3125 36 52 C35.88207974 45.89430893 35.75785627 39.78879181 35.62768555 33.68334961 C35.58426666 31.60460943 35.54259688 29.52583197 35.50268555 27.44702148 C35.44515079 24.46586855 35.38140881 21.48490451 35.31640625 18.50390625 C35.29969376 17.56849503 35.28298126 16.6330838 35.26576233 15.66932678 C35.2358445 14.37810158 35.2358445 14.37810158 35.20532227 13.06079102 C35.18977798 12.29912125 35.1742337 11.53745148 35.15821838 10.75270081 C35.18620671 8.97264994 35.18620671 8.97264994 34 8 C31.93227266 7.80058132 31.93227266 7.80058132 29.5625 7.8125 C28.75941406 7.79832031 27.95632812 7.78414062 27.12890625 7.76953125 C24.78369367 7.79837644 24.78369367 7.79837644 23 10 C22.68858493 11.88265776 22.68858493 11.88265776 22.7253418 14.05078125 C22.71580978 14.88504639 22.70627777 15.71931152 22.69645691 16.57885742 C22.69782402 17.9320105 22.69782402 17.9320105 22.69921875 19.3125 C22.69493362 20.23716064 22.6906485 21.16182129 22.68623352 22.11450195 C22.68048497 24.07144348 22.67999381 26.02840639 22.68432617 27.98535156 C22.68748737 30.98799871 22.66402938 33.9896622 22.63867188 36.9921875 C22.63639915 38.89062375 22.63569526 40.78906266 22.63671875 42.6875 C22.627509 43.58960205 22.61829926 44.4917041 22.60881042 45.42114258 C22.61815361 46.67254028 22.61815361 46.67254028 22.62768555 47.94921875 C22.62705612 48.68487061 22.6264267 49.42052246 22.6257782 50.1784668 C22.86305351 52.41671351 22.86305351 52.41671351 26 54 C26 54.66 26 55.32 26 56 C17.42 56 8.84 56 0 56 C0.33 55.01 0.66 54.02 1 53 C2.98 52.505 2.98 52.505 5 52 C5 36.16 5 20.32 5 4 C2.525 3.01 2.525 3.01 0 2 C0 1.34 0 0.68 0 0 Z " fill="#D0174F" transform="translate(206,212)"/>
<path d="M0 0 C3.31248187 -0.02888146 6.62493167 -0.04675799 9.9375 -0.0625 C10.88302734 -0.07087891 11.82855469 -0.07925781 12.80273438 -0.08789062 C14.15141602 -0.09272461 14.15141602 -0.09272461 15.52734375 -0.09765625 C16.77632446 -0.10551147 16.77632446 -0.10551147 18.05053711 -0.11352539 C20 0 20 0 21 1 C21.15806531 2.92478813 21.251135 4.8549921 21.31640625 6.78515625 C21.35830078 7.95498047 21.40019531 9.12480469 21.44335938 10.33007812 C21.48267578 11.56177734 21.52199219 12.79347656 21.5625 14.0625 C21.60568359 15.29806641 21.64886719 16.53363281 21.69335938 17.80664062 C21.79984198 20.87097335 21.90185424 23.93539073 22 27 C22.47050781 26.65066406 22.94101563 26.30132812 23.42578125 25.94140625 C24.04839844 25.48636719 24.67101562 25.03132813 25.3125 24.5625 C25.92738281 24.11003906 26.54226562 23.65757812 27.17578125 23.19140625 C31.92460337 20.08992714 37.54681523 20.43049716 43 21 C46.98970388 22.99485194 49.84617995 25.09154433 52 29 C52.41836886 32.26729925 52.34832958 35.50777564 52.29296875 38.796875 C52.28872391 39.74564514 52.28447906 40.69441528 52.28010559 41.67193604 C52.26333082 44.69824766 52.22568056 47.7238901 52.1875 50.75 C52.17245162 52.80337579 52.15876348 54.85676203 52.14648438 56.91015625 C52.11343117 61.94036148 52.06165683 66.97006733 52 72 C53.65 72.66 55.3 73.32 57 74 C57 74.66 57 75.32 57 76 C48.42 76 39.84 76 31 76 C31.495 74.515 31.495 74.515 32 73 C34.0625 72.3125 34.0625 72.3125 36 72 C35.88207974 65.89430893 35.75785627 59.78879181 35.62768555 53.68334961 C35.58426666 51.60460943 35.54259688 49.52583197 35.50268555 47.44702148 C35.44515079 44.46586855 35.38140881 41.48490451 35.31640625 38.50390625 C35.29969376 37.56849503 35.28298126 36.6330838 35.26576233 35.66932678 C35.2358445 34.37810158 35.2358445 34.37810158 35.20532227 33.06079102 C35.18977798 32.29912125 35.1742337 31.53745148 35.15821838 30.75270081 C35.18620671 28.97264994 35.18620671 28.97264994 34 28 C31.96729438 27.76179079 31.96729438 27.76179079 29.625 27.75 C28.83351562 27.72421875 28.04203125 27.6984375 27.2265625 27.671875 C24.43564121 28.08316866 23.74155199 28.82158088 22 31 C21.53207034 32.947838 21.53207034 32.947838 21.56762695 35.10424805 C21.54783279 35.92487228 21.52803864 36.74549652 21.50764465 37.59098816 C21.49805977 38.9129998 21.49805977 38.9129998 21.48828125 40.26171875 C21.47033005 41.16751175 21.45237885 42.07330475 21.43388367 43.00654602 C21.37969341 45.90014996 21.34585714 48.79358815 21.3125 51.6875 C21.27933461 53.64911165 21.24484568 55.61070141 21.20898438 57.57226562 C21.12396194 62.38139097 21.0571924 67.19046641 21 72 C22.65 72.66 24.3 73.32 26 74 C26 74.66 26 75.32 26 76 C17.42 76 8.84 76 0 76 C0.33 75.01 0.66 74.02 1 73 C3.0625 72.3125 3.0625 72.3125 5 72 C4.96195653 63.20271097 4.90261531 54.40589839 4.81609726 45.60895157 C4.7765918 41.52411545 4.74441863 37.43949589 4.72900391 33.35449219 C4.71385714 29.41200324 4.67944794 25.47010951 4.63169098 21.52788544 C4.61685653 20.02405725 4.6089578 18.5201441 4.60811615 17.01624298 C4.60575073 14.9089466 4.57871062 12.80330091 4.54589844 10.69628906 C4.53701599 9.49715881 4.52813354 8.29802856 4.51898193 7.06256104 C3.90594985 3.44500126 2.8141267 2.26386529 0 0 Z " fill="#D21750" transform="translate(100,192)"/>
<path d="M0 0 C2.05140933 1.98483215 3.15578327 3.18824947 3.79296875 5.98046875 C3.48805232 12.36112746 0.06160911 17.8629284 -3.6875 22.875 C-4.6775 23.37 -4.6775 23.37 -5.6875 23.875 C-5.92984375 22.9571875 -6.1721875 22.039375 -6.421875 21.09375 C-9.6929078 7.73231309 -9.6929078 7.73231309 -18.6875 -2.125 C-21.50751327 -3.53500664 -23.55757255 -3.37048451 -26.6875 -3.125 C-30.18156769 -1.45737678 -31.51420681 -0.38493978 -33.6875 2.875 C-34.28955094 6.95049854 -34.28955094 6.95049854 -33.6875 10.875 C-29.47511132 16.07112507 -23.19353983 18.88305147 -17.3125 21.75 C-0.29341766 30.41954406 -0.29341766 30.41954406 3.375 38.875 C5.04430381 44.76936932 5.32329719 49.616071 2.375 55.125 C-0.72679266 59.6063435 -4.6133221 61.25830609 -9.6875 62.875 C-10.73679688 63.23078125 -11.78609375 63.5865625 -12.8671875 63.953125 C-23.75146608 66.57959713 -37.85330626 66.63247343 -47.6875 60.875 C-50.55491692 59.00398278 -51.66152492 57.80140845 -53.6875 54.875 C-54.31704713 47.44634385 -50.21045827 41.55742332 -45.6875 35.875 C-45.0275 35.875 -44.3675 35.875 -43.6875 35.875 C-43.52894531 36.69742188 -43.37039062 37.51984375 -43.20703125 38.3671875 C-40.74558379 50.59624905 -40.74558379 50.59624905 -33.76953125 60.6171875 C-30.50046138 62.59212277 -27.33066305 62.60223408 -23.6875 61.875 C-20.44089511 59.98606625 -18.31521787 58.59240788 -16.9921875 54.97265625 C-16.10661915 50.06434654 -16.90543825 47.12703567 -19.6875 42.875 C-22.19032286 40.93774533 -24.89898757 39.48553148 -27.6875 38 C-29.22503586 37.13834709 -30.76019381 36.27243757 -32.29296875 35.40234375 C-33.04239746 34.97808105 -33.79182617 34.55381836 -34.56396484 34.11669922 C-41.73520611 29.92344409 -49.94344433 25.10716702 -52.6875 16.875 C-53.06612664 12.86155757 -52.97298038 10.45785578 -51.1875 6.8125 C-39.0002941 -7.50746693 -15.48251544 -11.56492921 0 0 Z " fill="#CE174E" transform="translate(96.6875,203.125)"/>
<path d="M0 0 C5.43085803 2.9930062 8.58540947 6.13735181 10.88671875 11.890625 C10.93945013 13.55645728 10.94935254 15.22513565 10.88671875 16.890625 C-13.13358582 30.890625 -13.13358582 30.890625 -18.11328125 30.890625 C-16.81300257 34.9967682 -15.79524153 38.06400648 -13.05078125 41.390625 C-8.73968279 43.59203698 -4.85421869 43.80847049 -0.11328125 42.890625 C2.30501964 41.46140423 3.87583838 39.90150537 5.88671875 37.890625 C6.54671875 37.890625 7.20671875 37.890625 7.88671875 37.890625 C6.4956732 43.80256858 5.04520275 47.79075377 -0.24609375 51.30859375 C-6.19369093 54.63663794 -11.33428957 56.05941667 -18.11328125 54.890625 C-25.65668877 52.69444306 -30.66576759 47.24416699 -34.4375 40.53515625 C-38.36170197 31.87437365 -38.20684761 23.17394356 -35.14453125 14.2421875 C-32.34191429 7.85137155 -28.24294907 2.87601869 -21.9296875 -0.25390625 C-14.87717021 -2.3960717 -6.95862265 -2.47960958 0 0 Z " fill="#CE174E" transform="translate(194.11328125,213.109375)"/>
<path d="M0 0 C4.259989 1.94787601 6.47786764 4.05614583 8.3515625 8.2734375 C8.75060869 11.50418145 8.70090707 14.69824978 8.64453125 17.94921875 C8.64028641 18.8743779 8.63604156 19.79953705 8.63166809 20.75273132 C8.61492243 23.6974338 8.57727772 26.6414431 8.5390625 29.5859375 C8.52401035 31.58657863 8.51032287 33.58723053 8.49804688 35.58789062 C8.46503233 40.48333857 8.41327825 45.37827065 8.3515625 50.2734375 C10.0015625 50.6034375 11.6515625 50.9334375 13.3515625 51.2734375 C13.3515625 52.2634375 13.3515625 53.2534375 13.3515625 54.2734375 C6.4215625 54.2734375 -0.5084375 54.2734375 -7.6484375 54.2734375 C-7.9784375 52.9534375 -8.3084375 51.6334375 -8.6484375 50.2734375 C-9.4115625 50.9128125 -10.1746875 51.5521875 -10.9609375 52.2109375 C-15.14252863 55.42006557 -18.46053817 55.80102048 -23.6484375 55.2734375 C-26.62395545 53.49740452 -29.07598938 51.41833373 -30.6484375 48.2734375 C-30.82255957 46.34096798 -30.91549292 44.4007034 -30.9609375 42.4609375 C-30.99832031 41.42324219 -31.03570312 40.38554687 -31.07421875 39.31640625 C-30.5349999 35.46272291 -29.40847441 33.98755033 -26.6484375 31.2734375 C-23.84375 29.578125 -23.84375 29.578125 -20.7734375 28.1484375 C-19.76539063 27.67148438 -18.75734375 27.19453125 -17.71875 26.703125 C-16.70554687 26.23132813 -15.69234375 25.75953125 -14.6484375 25.2734375 C-12.64567 24.27899175 -10.64484905 23.28058243 -8.6484375 22.2734375 C-8.61947774 19.14845687 -8.60165267 16.0235106 -8.5859375 12.8984375 C-8.57755859 12.00898438 -8.56917969 11.11953125 -8.56054688 10.203125 C-8.55732422 9.35234375 -8.55410156 8.5015625 -8.55078125 7.625 C-8.54554443 6.83947754 -8.54030762 6.05395508 -8.53491211 5.24462891 C-8.52269797 3.19571082 -8.52269797 3.19571082 -9.6484375 1.2734375 C-11.9584375 1.2734375 -14.2684375 1.2734375 -16.6484375 1.2734375 C-17.04169569 8.25012907 -16.27939789 13.78999939 -13.6484375 20.2734375 C-17.38803934 21.6316464 -20.05372998 20.90272646 -23.8359375 19.8984375 C-24.90199219 19.62257812 -25.96804688 19.34671875 -27.06640625 19.0625 C-29.6484375 18.2734375 -29.6484375 18.2734375 -30.6484375 17.2734375 C-31.23263576 13.69522315 -31.27050882 11.25688551 -29.296875 8.13671875 C-21.56559745 -1.07610317 -11.66547187 -3.20026219 0 0 Z " fill="#D1174F" transform="translate(323.6484375,213.7265625)"/>
<path d="M0 0 C3.12492251 -0.05791844 6.24970766 -0.09356746 9.375 -0.125 C10.26445312 -0.14175781 11.15390625 -0.15851563 12.0703125 -0.17578125 C12.92109375 -0.18222656 13.771875 -0.18867188 14.6484375 -0.1953125 C15.82672119 -0.21102295 15.82672119 -0.21102295 17.02880859 -0.22705078 C19 0 19 0 21 2 C21.1953125 4.8203125 21.1953125 4.8203125 21.125 8.125 C21.10695313 9.22070312 21.08890625 10.31640625 21.0703125 11.4453125 C21.04710937 12.28835937 21.02390625 13.13140625 21 14 C23.31 14 25.62 14 28 14 C28 14.66 28 15.32 28 16 C25.69 16 23.38 16 21 16 C21.33 32.17 21.66 48.34 22 65 C23.98 63.68 25.96 62.36 28 61 C28.66 61 29.32 61 30 61 C28.49364535 65.21779303 25.75987578 66.7747674 22 69 C18.28512845 70.23829052 14.86021488 70.5503822 11 70 C7.4276213 67.82550862 5.56988352 65.8324922 4 62 C3.75949097 59.77264404 3.75949097 59.77264404 3.77294922 57.32324219 C3.77310028 56.40258972 3.77325134 55.48193726 3.77340698 54.53338623 C3.78372955 53.54783752 3.79405212 52.56228882 3.8046875 51.546875 C3.8075174 50.53151672 3.81034729 49.51615845 3.81326294 48.47003174 C3.82444999 45.22990084 3.84955209 41.99004724 3.875 38.75 C3.8850317 36.55208733 3.89415722 34.35417032 3.90234375 32.15625 C3.92438449 26.77073886 3.95784749 21.38538924 4 16 C2.68 16 1.36 16 0 16 C0 15.34 0 14.68 0 14 C1.32 14 2.64 14 4 14 C4 10.7 4 7.4 4 4 C2.68 3.34 1.36 2.68 0 2 C0 1.34 0 0.68 0 0 Z " fill="#CE174F" transform="translate(396,198)"/>
<path d="M0 0 C3.29159316 -0.05790353 6.58305603 -0.09356261 9.875 -0.125 C10.81214844 -0.14175781 11.74929688 -0.15851563 12.71484375 -0.17578125 C13.61074219 -0.18222656 14.50664062 -0.18867188 15.4296875 -0.1953125 C16.25710449 -0.20578613 17.08452148 -0.21625977 17.93701172 -0.22705078 C20 0 20 0 22 2 C22.25828552 4.12524414 22.25828552 4.12524414 22.27124023 6.78515625 C22.28142685 7.7795874 22.29161346 8.77401855 22.30210876 9.79858398 C22.30424881 10.87567627 22.30638885 11.95276855 22.30859375 13.0625 C22.33374696 15.32552348 22.35914508 17.58854426 22.38476562 19.8515625 C22.41357088 23.43326153 22.43757795 27.01491358 22.45629883 30.59667969 C22.47786152 34.04386635 22.51728886 37.49050189 22.55859375 40.9375 C22.55870956 42.01459229 22.55882538 43.09168457 22.5589447 44.20141602 C22.57228348 45.19584717 22.58562225 46.19027832 22.59936523 47.21484375 C22.60443588 48.09261475 22.60950653 48.97038574 22.61473083 49.87475586 C22.74186966 50.57608643 22.86900848 51.27741699 23 52 C23.99 52.66 24.98 53.32 26 54 C26 54.66 26 55.32 26 56 C17.42 56 8.84 56 0 56 C0 55.34 0 54.68 0 54 C1.65 53.34 3.3 52.68 5 52 C5 36.16 5 20.32 5 4 C2.525 3.01 2.525 3.01 0 2 C0 1.34 0 0.68 0 0 Z " fill="#CE174E" transform="translate(429,212)"/>
<path d="M0 0 C0.17449702 4.22864445 0.28092495 8.45636251 0.375 12.6875 C0.45041016 14.48477539 0.45041016 14.48477539 0.52734375 16.31835938 C0.6720612 24.97728682 0.6720612 24.97728682 -1.25683594 27.91259766 C-4.61218316 30.79587221 -7.98461529 31.88505079 -12.3125 32.375 C-17.20301701 31.87765929 -18.57084492 30.42915508 -22 27 C-23.33548347 24.32903306 -23.24263562 22.16960576 -23.3125 19.1875 C-23.34988281 18.14980469 -23.38726562 17.11210937 -23.42578125 16.04296875 C-22.88629101 12.18734581 -21.76167512 10.71580012 -19 8 C-16.16015625 6.26953125 -16.16015625 6.26953125 -13.0625 4.8125 C-11.53302734 4.07966797 -11.53302734 4.07966797 -9.97265625 3.33203125 C-2.53665689 0 -2.53665689 0 0 0 Z " fill="#CC174E" transform="translate(316,237)"/>
<path d="M0 0 C0.99 0.66 1.98 1.32 3 2 C1.93921343 12.18952733 -6.52432364 20.49373803 -14 27 C-14.33 27 -14.66 27 -15 27 C-15.58403369 17.99290262 -15.57597871 10.46887675 -10 3 C-6.59892324 -0.0052907 -4.55529586 -0.48460594 0 0 Z " fill="#060002" transform="translate(191,214)"/>
<path d="M0 0 C0.66 0 1.32 0 2 0 C2.23074219 0.61488281 2.46148437 1.22976562 2.69921875 1.86328125 C4.70942382 6.94925936 4.70942382 6.94925936 8.3125 10.9375 C11.49429922 12.19542062 14.6856116 13.1551559 18 14 C15.67072184 15.2542267 13.55375363 16.13015519 11 16.875 C7.62445071 18.14083098 6.16881509 19.13406577 4 22 C2.72234735 25.63543901 2.72234735 25.63543901 2 29 C1.34 29 0.68 29 0 29 C-0.18175781 28.45730469 -0.36351562 27.91460937 -0.55078125 27.35546875 C-0.80214844 26.64003906 -1.05351562 25.92460937 -1.3125 25.1875 C-1.67794922 24.12595703 -1.67794922 24.12595703 -2.05078125 23.04296875 C-3.5831466 19.74491493 -5.07175597 18.35521779 -8.48046875 17.05078125 C-9.37378906 16.80714844 -10.26710937 16.56351563 -11.1875 16.3125 C-12.08855469 16.06113281 -12.98960937 15.80976563 -13.91796875 15.55078125 C-14.60503906 15.36902344 -15.29210937 15.18726563 -16 15 C-13.75670397 12.75670397 -12.62939256 12.52854691 -9.625 11.75 C-5.99977917 10.60181912 -5.07944714 10.09335039 -2.5 7.0625 C-1.31104209 4.63504427 -0.40827313 2.65377538 0 0 Z " fill="#EC507F" transform="translate(193,171)"/>
<path d="M0 0 C2.875 2.0625 2.875 2.0625 5 5 C5.06641554 8.85210127 4.87229157 10.99848005 2.3125 13.9375 C-0.73602877 15.33817538 -2.67926952 15.4842732 -6 15 C-8.375 13.4375 -8.375 13.4375 -10 11 C-10.5625 7.5 -10.5625 7.5 -10 4 C-6.99746894 0.65432253 -4.50513222 -1.01365475 0 0 Z " fill="#CA164D" transform="translate(445,186)"/>
<path d="M0 0 C0 7.59 0 15.18 0 23 C-1.65 23.33 -3.3 23.66 -5 24 C-8.55453864 19.98346563 -8.49780291 16.88635919 -8.359375 11.6953125 C-7.90045952 8.2534464 -4.37989478 0 0 0 Z " fill="#090103" transform="translate(316,238)"/>
<path d="M0 0 C0.66 1.32 1.32 2.64 2 4 C3.32 3.34 4.64 2.68 6 2 C6 2.33 6 2.66 6 3 C7.65 3.33 9.3 3.66 11 4 C11 4.33 11 4.66 11 5 C9.329375 5.2165625 9.329375 5.2165625 7.625 5.4375 C4.17857953 5.78372035 4.17857953 5.78372035 2 7 C1.34 6.67 0.68 6.34 0 6 C0 4.02 0 2.04 0 0 Z " fill="#961139" transform="translate(358,214)"/>
<path d="M0 0 C0.66 1.32 1.32 2.64 2 4 C3.32 3.34 4.64 2.68 6 2 C6 2.33 6 2.66 6 3 C7.65 3.33 9.3 3.66 11 4 C11 4.33 11 4.66 11 5 C9.329375 5.2165625 9.329375 5.2165625 7.625 5.4375 C4.17857953 5.78372035 4.17857953 5.78372035 2 7 C1.34 6.67 0.68 6.34 0 6 C0 4.02 0 2.04 0 0 Z " fill="#921038" transform="translate(227,214)"/>
<path d="M0 0 C2.31 0.66 4.62 1.32 7 2 C7 2.33 7 2.66 7 3 C5.906875 3.12375 4.81375 3.2475 3.6875 3.375 C-0.07381802 3.75464801 -0.07381802 3.75464801 -3 6 C-3 3 -3 3 -1.5 1.3125 C-0.7575 0.6628125 -0.7575 0.6628125 0 0 Z " fill="#A7133F" transform="translate(262,216)"/>
</svg>
