<?xml version="1.0" encoding="UTF-8"?>
<svg version="1.1" xmlns="http://www.w3.org/2000/svg" width="500" height="500">
<path d="M0 0 C165 0 330 0 500 0 C500 165 500 330 500 500 C335 500 170 500 0 500 C0 335 0 170 0 0 Z " fill="#F75485" transform="translate(0,0)"/>
<path d="M0 0 C3.29159316 -0.05790353 6.58305603 -0.09356261 9.875 -0.125 C10.81214844 -0.14175781 11.74929688 -0.15851563 12.71484375 -0.17578125 C13.61074219 -0.18222656 14.50664062 -0.18867188 15.4296875 -0.1953125 C16.25710449 -0.20578613 17.08452148 -0.21625977 17.93701172 -0.22705078 C20 0 20 0 22 2 C22.625 4.125 22.625 4.125 23 6 C23.7425 5.360625 24.485 4.72125 25.25 4.0625 C30.72114374 -0.0408578 37.38469777 0.34554497 44 1 C47.775212 2.45532982 49.7508162 4.62622429 52 8 C52.24050903 10.03117371 52.24050903 10.03117371 52.22705078 12.37963867 C52.22689972 13.26032516 52.22674866 14.14101166 52.22659302 15.04838562 C52.21627045 15.99534805 52.20594788 16.94231049 52.1953125 17.91796875 C52.1924826 18.89034988 52.18965271 19.86273102 52.18673706 20.86457825 C52.17553599 23.97234366 52.15043148 27.07982159 52.125 30.1875 C52.11497011 32.29361563 52.10584427 34.39973578 52.09765625 36.50585938 C52.07559688 41.6706838 52.04106746 46.83529315 52 52 C53.65 52.66 55.3 53.32 57 54 C57 54.66 57 55.32 57 56 C48.42 56 39.84 56 31 56 C31.33 55.01 31.66 54.02 32 53 C34.0625 52.3125 34.0625 52.3125 36 52 C35.88207974 45.89430893 35.75785627 39.78879181 35.62768555 33.68334961 C35.58426666 31.60460943 35.54259688 29.52583197 35.50268555 27.44702148 C35.44515079 24.46586855 35.38140881 21.48490451 35.31640625 18.50390625 C35.29969376 17.56849503 35.28298126 16.6330838 35.26576233 15.66932678 C35.2358445 14.37810158 35.2358445 14.37810158 35.20532227 13.06079102 C35.18977798 12.29912125 35.1742337 11.53745148 35.15821838 10.75270081 C35.18620671 8.97264994 35.18620671 8.97264994 34 8 C31.93227266 7.80058132 31.93227266 7.80058132 29.5625 7.8125 C28.75941406 7.79832031 27.95632813 7.78414062 27.12890625 7.76953125 C24.78369367 7.79837644 24.78369367 7.79837644 23 10 C22.68858493 11.88265776 22.68858493 11.88265776 22.7253418 14.05078125 C22.71580978 14.88504639 22.70627777 15.71931152 22.69645691 16.57885742 C22.69736832 17.48095947 22.69827972 18.38306152 22.69921875 19.3125 C22.69279106 20.69949097 22.69279106 20.69949097 22.68623352 22.11450195 C22.68048497 24.07144348 22.67999381 26.02840639 22.68432617 27.98535156 C22.68748737 30.98799871 22.66402938 33.9896622 22.63867188 36.9921875 C22.63639915 38.89062375 22.63569526 40.78906266 22.63671875 42.6875 C22.627509 43.58960205 22.61829926 44.4917041 22.60881042 45.42114258 C22.61815361 46.67254028 22.61815361 46.67254028 22.62768555 47.94921875 C22.62705612 48.68487061 22.6264267 49.42052246 22.6257782 50.1784668 C22.86305351 52.41671351 22.86305351 52.41671351 26 54 C26 54.66 26 55.32 26 56 C10.49 56 -5.02 56 -21 56 C-21.33 54.68 -21.66 53.36 -22 52 C-22.763125 52.639375 -23.52625 53.27875 -24.3125 53.9375 C-28.49409113 57.14662807 -31.81210067 57.52758298 -37 57 C-39.97551795 55.22396702 -42.42755188 53.14489623 -44 50 C-44.17412207 48.06753048 -44.26705542 46.1272659 -44.3125 44.1875 C-44.34988281 43.14980469 -44.38726562 42.11210937 -44.42578125 41.04296875 C-43.8865624 37.18928541 -42.76003691 35.71411283 -40 33 C-37.1953125 31.3046875 -37.1953125 31.3046875 -34.125 29.875 C-33.11695313 29.39804688 -32.10890625 28.92109375 -31.0703125 28.4296875 C-30.05710937 27.95789063 -29.04390625 27.48609375 -28 27 C-25.9972325 26.00555425 -23.99641155 25.00714493 -22 24 C-21.97104024 20.87501937 -21.95321517 17.7500731 -21.9375 14.625 C-21.92912109 13.73554688 -21.92074219 12.84609375 -21.91210938 11.9296875 C-21.90888672 11.07890625 -21.90566406 10.228125 -21.90234375 9.3515625 C-21.89710693 8.56604004 -21.89187012 7.78051758 -21.88647461 6.97119141 C-21.87426047 4.92227332 -21.87426047 4.92227332 -23 3 C-25.31 3 -27.62 3 -30 3 C-30.39325819 9.97669157 -29.63096039 15.51656189 -27 22 C-30.73960184 23.3582089 -33.40529248 22.62928896 -37.1875 21.625 C-38.25355469 21.34914062 -39.31960938 21.07328125 -40.41796875 20.7890625 C-43 20 -43 20 -44 19 C-44.58419826 15.42178565 -44.62207132 12.98344801 -42.6484375 9.86328125 C-38.22177946 4.58834292 -34.23539758 1.39861161 -27.1953125 0.53125 C-25.83891912 0.49759587 -24.48175594 0.48779722 -23.125 0.5 C-22.41972168 0.50354492 -21.71444336 0.50708984 -20.98779297 0.51074219 C-15.93695562 0.67182736 -12.44994744 1.56102473 -8.3828125 4.515625 C-5.60632317 7.49603728 -4.74872611 10.28853356 -4.77294922 14.30957031 C-4.77310028 15.15013977 -4.77325134 15.99070923 -4.77340698 16.85675049 C-4.78372955 17.75480408 -4.79405212 18.65285767 -4.8046875 19.578125 C-4.8075174 20.5046991 -4.81034729 21.43127319 -4.81326294 22.38592529 C-4.82444389 25.34074909 -4.84954473 28.29526805 -4.875 31.25 C-4.88503249 33.25520395 -4.89415787 35.26041266 -4.90234375 37.265625 C-4.92437642 42.17720051 -4.95889205 47.08854859 -5 52 C0.05009595 52.93786082 0.05009595 52.93786082 5 52 C5 36.16 5 20.32 5 4 C2.525 3.01 2.525 3.01 0 2 C0 1.34 0 0.68 0 0 Z " fill="#040102" transform="translate(337,212)"/>
<path d="M0 0 C3.29159316 -0.05790353 6.58305603 -0.09356261 9.875 -0.125 C10.81214844 -0.14175781 11.74929687 -0.15851563 12.71484375 -0.17578125 C13.61074219 -0.18222656 14.50664062 -0.18867188 15.4296875 -0.1953125 C16.25710449 -0.20578613 17.08452148 -0.21625977 17.93701172 -0.22705078 C20 0 20 0 22 2 C22.625 4.125 22.625 4.125 23 6 C23.7425 5.360625 24.485 4.72125 25.25 4.0625 C30.53216396 0.10087703 36.60385148 0.48089229 43 1 C47.27707103 2.52752537 49.60308356 4.13830129 52 8 C52.47050781 7.57847656 52.94101562 7.15695313 53.42578125 6.72265625 C54.04839844 6.17480469 54.67101562 5.62695312 55.3125 5.0625 C56.23482422 4.24458984 56.23482422 4.24458984 57.17578125 3.41015625 C61.91866208 -0.25618204 68.31975695 0.59426835 74 1 C77.94104362 2.24454009 79.39150861 3.06667076 81.6340332 6.50634766 C83.41549653 11.06269086 83.37745135 14.92982366 83.29296875 19.7734375 C83.28872391 20.6971817 83.28447906 21.6209259 83.28010559 22.57266235 C83.26338673 25.5070783 83.22574716 28.44079356 83.1875 31.375 C83.17244438 33.37108379 83.15875751 35.36717841 83.14648438 37.36328125 C83.11350545 42.24245522 83.06177014 47.12110903 83 52 C84.65 52.66 86.3 53.32 88 54 C88 54.66 88 55.32 88 56 C79.42 56 70.84 56 62 56 C62.33 55.01 62.66 54.02 63 53 C65.0625 52.3125 65.0625 52.3125 67 52 C66.88195095 46.05503441 66.75771714 40.11024294 66.62768555 34.16552734 C66.58430605 32.14212584 66.54263322 30.11868701 66.50268555 28.09521484 C66.44505592 25.19096616 66.3813406 22.28690589 66.31640625 19.3828125 C66.29969376 18.47443634 66.28298126 17.56606018 66.26576233 16.63015747 C66.2358445 15.36907669 66.2358445 15.36907669 66.20532227 14.08251953 C66.18200584 12.96999313 66.18200584 12.96999313 66.15821838 11.83499146 C66.10526504 9.90325896 66.10526504 9.90325896 65 8 C61.37 8 57.74 8 54 8 C53.10557535 10.68327394 52.85418313 12.34149739 52.79467773 15.10424805 C52.77473251 15.92487228 52.75478729 16.74549652 52.73423767 17.59098816 C52.70916893 18.9129998 52.70916893 18.9129998 52.68359375 20.26171875 C52.66281265 21.16751175 52.64203156 22.07330475 52.62062073 23.00654602 C52.55523442 25.90012016 52.49629096 28.79378507 52.4375 31.6875 C52.3943044 33.64909793 52.35068977 35.61068668 52.30664062 37.57226562 C52.19956418 42.38141739 52.09826586 47.19066046 52 52 C53.65 52.66 55.3 53.32 57 54 C57 54.66 57 55.32 57 56 C48.42 56 39.84 56 31 56 C31.33 55.01 31.66 54.02 32 53 C34.0625 52.3125 34.0625 52.3125 36 52 C35.88207974 45.89430893 35.75785627 39.78879181 35.62768555 33.68334961 C35.58426666 31.60460943 35.54259688 29.52583197 35.50268555 27.44702148 C35.44515079 24.46586855 35.38140881 21.48490451 35.31640625 18.50390625 C35.29969376 17.56849503 35.28298126 16.6330838 35.26576233 15.66932678 C35.2358445 14.37810158 35.2358445 14.37810158 35.20532227 13.06079102 C35.18977798 12.29912125 35.1742337 11.53745148 35.15821838 10.75270081 C35.18620671 8.97264994 35.18620671 8.97264994 34 8 C31.96729438 7.76179079 31.96729438 7.76179079 29.625 7.75 C28.83351562 7.72421875 28.04203125 7.6984375 27.2265625 7.671875 C24.43564121 8.08316866 23.74155199 8.82158088 22 11 C21.53207034 12.947838 21.53207034 12.947838 21.56762695 15.10424805 C21.54783279 15.92487228 21.52803864 16.74549652 21.50764465 17.59098816 C21.49805977 18.9129998 21.49805977 18.9129998 21.48828125 20.26171875 C21.47033005 21.16751175 21.45237885 22.07330475 21.43388367 23.00654602 C21.37969341 25.90014996 21.34585714 28.79358815 21.3125 31.6875 C21.27933461 33.64911165 21.24484568 35.61070141 21.20898438 37.57226562 C21.12396194 42.38139097 21.0571924 47.19046641 21 52 C22.65 52.66 24.3 53.32 26 54 C26 54.66 26 55.32 26 56 C17.42 56 8.84 56 0 56 C0.33 55.01 0.66 54.02 1 53 C2.98 52.505 2.98 52.505 5 52 C5 36.16 5 20.32 5 4 C2.525 3.01 2.525 3.01 0 2 C0 1.34 0 0.68 0 0 Z " fill="#020001" transform="translate(206,212)"/>
<path d="M0 0 C3.31248187 -0.02888146 6.62493167 -0.04675799 9.9375 -0.0625 C10.88302734 -0.07087891 11.82855469 -0.07925781 12.80273438 -0.08789062 C14.15141602 -0.09272461 14.15141602 -0.09272461 15.52734375 -0.09765625 C16.77632446 -0.10551147 16.77632446 -0.10551147 18.05053711 -0.11352539 C20 0 20 0 21 1 C21.15806531 2.92478813 21.251135 4.8549921 21.31640625 6.78515625 C21.35830078 7.95498047 21.40019531 9.12480469 21.44335938 10.33007812 C21.48267578 11.56177734 21.52199219 12.79347656 21.5625 14.0625 C21.60568359 15.29806641 21.64886719 16.53363281 21.69335938 17.80664062 C21.79984198 20.87097335 21.90185424 23.93539073 22 27 C22.47050781 26.65066406 22.94101563 26.30132812 23.42578125 25.94140625 C24.04839844 25.48636719 24.67101562 25.03132813 25.3125 24.5625 C25.92738281 24.11003906 26.54226562 23.65757812 27.17578125 23.19140625 C31.91684463 20.09499441 37.55446813 20.41655016 43 21 C46.27213627 22.35909597 48.50340458 24.50340458 51 27 C51.92146464 29.77583968 52.12251114 32.3063921 52.11352539 35.21777344 C52.11344986 36.03832214 52.11337433 36.85887085 52.11329651 37.70428467 C52.10813522 38.58046448 52.10297394 39.45664429 52.09765625 40.359375 C52.0962413 41.26375305 52.09482635 42.1681311 52.09336853 43.09991455 C52.08777911 45.98331027 52.07522853 48.86662782 52.0625 51.75 C52.05748363 53.70703013 52.05292096 55.66406147 52.04882812 57.62109375 C52.03781313 62.41409253 52.02055574 67.20703302 52 72 C53.65 72.66 55.3 73.32 57 74 C57 74.66 57 75.32 57 76 C48.42 76 39.84 76 31 76 C31.495 74.515 31.495 74.515 32 73 C34.0625 72.3125 34.0625 72.3125 36 72 C35.88207974 65.89430893 35.75785627 59.78879181 35.62768555 53.68334961 C35.58426666 51.60460943 35.54259688 49.52583197 35.50268555 47.44702148 C35.44515079 44.46586855 35.38140881 41.48490451 35.31640625 38.50390625 C35.29969376 37.56849503 35.28298126 36.6330838 35.26576233 35.66932678 C35.2358445 34.37810158 35.2358445 34.37810158 35.20532227 33.06079102 C35.18977798 32.29912125 35.1742337 31.53745148 35.15821838 30.75270081 C35.18620671 28.97264994 35.18620671 28.97264994 34 28 C31.96729438 27.76179079 31.96729438 27.76179079 29.625 27.75 C28.83351562 27.72421875 28.04203125 27.6984375 27.2265625 27.671875 C24.43564121 28.08316866 23.74155199 28.82158088 22 31 C21.53207034 32.947838 21.53207034 32.947838 21.56762695 35.10424805 C21.54783279 35.92487228 21.52803864 36.74549652 21.50764465 37.59098816 C21.49805977 38.9129998 21.49805977 38.9129998 21.48828125 40.26171875 C21.47033005 41.16751175 21.45237885 42.07330475 21.43388367 43.00654602 C21.37969341 45.90014996 21.34585714 48.79358815 21.3125 51.6875 C21.27933461 53.64911165 21.24484568 55.61070141 21.20898438 57.57226562 C21.12396194 62.38139097 21.0571924 67.19046641 21 72 C22.65 72.66 24.3 73.32 26 74 C26 74.66 26 75.32 26 76 C17.42 76 8.84 76 0 76 C0.33 75.01 0.66 74.02 1 73 C3.0625 72.3125 3.0625 72.3125 5 72 C4.96195653 63.20271097 4.90261531 54.40589839 4.81609726 45.60895157 C4.7765918 41.52411545 4.74441863 37.43949589 4.72900391 33.35449219 C4.71385714 29.41200324 4.67944794 25.47010951 4.63169098 21.52788544 C4.61685653 20.02405725 4.6089578 18.5201441 4.60811615 17.01624298 C4.60575073 14.9089466 4.57871062 12.80330091 4.54589844 10.69628906 C4.53701599 9.49715881 4.52813354 8.29802856 4.51898193 7.06256104 C3.90594985 3.44500126 2.8141267 2.26386529 0 0 Z " fill="#010000" transform="translate(100,192)"/>
<path d="M0 0 C2.84385912 1.84797587 3.97846982 3.13616559 6 6 C6.69005866 11.76889037 5.17113994 15.27185322 2 19.9375 C1.42765625 20.82018555 1.42765625 20.82018555 0.84375 21.72070312 C-0.09004808 23.15641767 -1.04308927 24.57958564 -2 26 C-4.60856477 23.39143523 -4.63086935 21.47969708 -5.3125 17.875 C-6.9543832 10.44547851 -9.11412166 5.45606667 -14.9375 0.5 C-18.38256792 -1.18738021 -20.21882297 -1.56315403 -24 -1 C-27.49406769 0.66762322 -28.82670681 1.74006022 -31 5 C-31.60205094 9.07549854 -31.60205094 9.07549854 -31 13 C-26.78796756 18.19568564 -20.50614609 21.00916749 -14.625 23.875 C-6.37648854 28.06255973 0.58144353 32.23473947 6.0625 39.875 C7.77639189 45.58797297 8.15962111 51.4190245 5.4375 56.875 C2.67004039 60.42302514 0.07066396 62.28603623 -4 64 C-4.65097656 64.2990625 -5.30195312 64.598125 -5.97265625 64.90625 C-16.09949663 68.76409395 -30.11966308 68.73717493 -40.375 65.375 C-45.00613102 63.28587781 -48.09046032 61.20266842 -51 57 C-51.62954713 49.57134385 -47.52295827 43.68242332 -43 38 C-42.34 38 -41.68 38 -41 38 C-40.84144531 38.82242188 -40.68289062 39.64484375 -40.51953125 40.4921875 C-38.0501069 52.71873129 -38.0501069 52.71873129 -31.0859375 62.75390625 C-27.04839402 65.16584702 -22.50039114 64.35878919 -18.125 63.3125 C-15.22529323 61.52150464 -14.79081207 60.30703231 -14 57 C-13.45402823 52.85061451 -13.274946 50.15972113 -15.55078125 46.51953125 C-18.58181301 43.40148423 -21.73320515 41.67499216 -25.5625 39.6875 C-45.57028081 28.85943838 -45.57028081 28.85943838 -50 20 C-50.37612682 15.48647813 -50.46798614 12.97497112 -48.5 8.875 C-42.62681029 2.12083183 -36.64734509 -0.95581468 -28 -3 C-27.35546875 -3.18304688 -26.7109375 -3.36609375 -26.046875 -3.5546875 C-17.09883539 -5.50139841 -8.17418284 -3.89419035 0 0 Z " fill="#060203" transform="translate(94,201)"/>
<path d="M0 0 C5.43085803 2.9930062 8.58540947 6.13735181 10.88671875 11.890625 C10.93945013 13.55645728 10.94935254 15.22513565 10.88671875 16.890625 C-13.69715925 30.890625 -13.69715925 30.890625 -18.11328125 30.890625 C-15.88427291 38.2059132 -15.88427291 38.2059132 -10.11328125 42.890625 C-5.2603837 43.75176763 -2.03993218 43.42259128 2.26171875 40.953125 C3.56109375 39.9321875 3.56109375 39.9321875 4.88671875 38.890625 C5.87671875 38.560625 6.86671875 38.230625 7.88671875 37.890625 C6.4956732 43.80256858 5.04520275 47.79075377 -0.24609375 51.30859375 C-6.19369093 54.63663794 -11.33428957 56.05941667 -18.11328125 54.890625 C-25.65668877 52.69444306 -30.66576759 47.24416699 -34.4375 40.53515625 C-38.36170197 31.87437365 -38.20684761 23.17394356 -35.14453125 14.2421875 C-32.34191429 7.85137155 -28.24294907 2.87601869 -21.9296875 -0.25390625 C-14.87717021 -2.3960717 -6.95862265 -2.47960958 0 0 Z " fill="#060203" transform="translate(194.11328125,213.109375)"/>
<path d="M0 0 C0.70527832 0.00354492 1.41055664 0.00708984 2.13720703 0.01074219 C7.18804438 0.17182736 10.67505256 1.06102473 14.7421875 4.015625 C17.51867683 6.99603728 18.37627389 9.78853356 18.35205078 13.80957031 C18.35189972 14.65013977 18.35174866 15.49070923 18.35159302 16.35675049 C18.34127045 17.25480408 18.33094788 18.15285767 18.3203125 19.078125 C18.3174826 20.0046991 18.31465271 20.93127319 18.31173706 21.88592529 C18.30055611 24.84074909 18.27545527 27.79526805 18.25 30.75 C18.23996751 32.75520395 18.23084213 34.76041266 18.22265625 36.765625 C18.20062358 41.67720051 18.16610795 46.58854859 18.125 51.5 C19.775 51.83 21.425 52.16 23.125 52.5 C23.125 53.49 23.125 54.48 23.125 55.5 C16.195 55.5 9.265 55.5 2.125 55.5 C1.795 54.18 1.465 52.86 1.125 51.5 C0.361875 52.139375 -0.40125 52.77875 -1.1875 53.4375 C-5.36909113 56.64662807 -8.68710067 57.02758298 -13.875 56.5 C-16.85051795 54.72396702 -19.30255188 52.64489623 -20.875 49.5 C-21.04912207 47.56753048 -21.14205542 45.6272659 -21.1875 43.6875 C-21.22488281 42.64980469 -21.26226562 41.61210937 -21.30078125 40.54296875 C-20.7615624 36.68928541 -19.63503691 35.21411283 -16.875 32.5 C-14.0703125 30.8046875 -14.0703125 30.8046875 -11 29.375 C-9.99195313 28.89804688 -8.98390625 28.42109375 -7.9453125 27.9296875 C-6.93210937 27.45789063 -5.91890625 26.98609375 -4.875 26.5 C-2.8722325 25.50555425 -0.87141155 24.50714493 1.125 23.5 C1.15395976 20.37501937 1.17178483 17.2500731 1.1875 14.125 C1.19587891 13.23554688 1.20425781 12.34609375 1.21289062 11.4296875 C1.21611328 10.57890625 1.21933594 9.728125 1.22265625 8.8515625 C1.22789307 8.06604004 1.23312988 7.28051758 1.23852539 6.47119141 C1.25073953 4.42227332 1.25073953 4.42227332 0.125 2.5 C-2.185 2.5 -4.495 2.5 -6.875 2.5 C-7.26825819 9.47669157 -6.50596039 15.01656189 -3.875 21.5 C-7.61460184 22.8582089 -10.28029248 22.12928896 -14.0625 21.125 C-15.12855469 20.84914062 -16.19460938 20.57328125 -17.29296875 20.2890625 C-19.875 19.5 -19.875 19.5 -20.875 18.5 C-21.45919826 14.92178565 -21.49707132 12.48344801 -19.5234375 9.36328125 C-13.98155732 2.75941081 -8.75039313 -0.07870176 0 0 Z " fill="#010000" transform="translate(313.875,212.5)"/>
<path d="M0 0 C3.12492251 -0.05791844 6.24970766 -0.09356746 9.375 -0.125 C10.26445312 -0.14175781 11.15390625 -0.15851563 12.0703125 -0.17578125 C12.92109375 -0.18222656 13.771875 -0.18867188 14.6484375 -0.1953125 C15.82672119 -0.21102295 15.82672119 -0.21102295 17.02880859 -0.22705078 C19 0 19 0 21 2 C21.1953125 4.8203125 21.1953125 4.8203125 21.125 8.125 C21.10695313 9.22070312 21.08890625 10.31640625 21.0703125 11.4453125 C21.04710937 12.28835937 21.02390625 13.13140625 21 14 C23.31 14 25.62 14 28 14 C28 14.66 28 15.32 28 16 C25.69 16 23.38 16 21 16 C21.33 32.17 21.66 48.34 22 65 C23.98 63.68 25.96 62.36 28 61 C28.66 61 29.32 61 30 61 C28.49364535 65.21779303 25.75987578 66.7747674 22 69 C18.28512845 70.23829052 14.86021488 70.5503822 11 70 C7.4276213 67.82550862 5.56988352 65.8324922 4 62 C3.75949097 59.77264404 3.75949097 59.77264404 3.77294922 57.32324219 C3.77310028 56.40258972 3.77325134 55.48193726 3.77340698 54.53338623 C3.78372955 53.54783752 3.79405212 52.56228882 3.8046875 51.546875 C3.8075174 50.53151672 3.81034729 49.51615845 3.81326294 48.47003174 C3.82444999 45.22990084 3.84955209 41.99004724 3.875 38.75 C3.8850317 36.55208733 3.89415722 34.35417032 3.90234375 32.15625 C3.92438449 26.77073886 3.95784749 21.38538924 4 16 C2.68 16 1.36 16 0 16 C0 15.34 0 14.68 0 14 C1.32 14 2.64 14 4 14 C4 10.7 4 7.4 4 4 C2.68 3.34 1.36 2.68 0 2 C0 1.34 0 0.68 0 0 Z " fill="#060203" transform="translate(396,198)"/>
<path d="M0 0 C3.29159316 -0.05790353 6.58305603 -0.09356261 9.875 -0.125 C10.81214844 -0.14175781 11.74929688 -0.15851563 12.71484375 -0.17578125 C13.61074219 -0.18222656 14.50664062 -0.18867188 15.4296875 -0.1953125 C16.25710449 -0.20578613 17.08452148 -0.21625977 17.93701172 -0.22705078 C20 0 20 0 22 2 C22.25828552 4.12524414 22.25828552 4.12524414 22.27124023 6.78515625 C22.28142685 7.7795874 22.29161346 8.77401855 22.30210876 9.79858398 C22.30424881 10.87567627 22.30638885 11.95276855 22.30859375 13.0625 C22.33374696 15.32552348 22.35914508 17.58854426 22.38476562 19.8515625 C22.41357088 23.43326153 22.43757795 27.01491358 22.45629883 30.59667969 C22.47786152 34.04386635 22.51728886 37.49050189 22.55859375 40.9375 C22.55870956 42.01459229 22.55882538 43.09168457 22.5589447 44.20141602 C22.57228348 45.19584717 22.58562225 46.19027832 22.59936523 47.21484375 C22.60443588 48.09261475 22.60950653 48.97038574 22.61473083 49.87475586 C22.74186966 50.57608643 22.86900848 51.27741699 23 52 C23.99 52.66 24.98 53.32 26 54 C26 54.66 26 55.32 26 56 C17.42 56 8.84 56 0 56 C0 55.34 0 54.68 0 54 C1.65 53.34 3.3 52.68 5 52 C5 36.16 5 20.32 5 4 C2.525 3.01 2.525 3.01 0 2 C0 1.34 0 0.68 0 0 Z " fill="#060203" transform="translate(429,212)"/>
<path d="M0 0 C0.17449702 4.22864445 0.28092495 8.45636251 0.375 12.6875 C0.45041016 14.48477539 0.45041016 14.48477539 0.52734375 16.31835938 C0.6720612 24.97728682 0.6720612 24.97728682 -1.25683594 27.91259766 C-4.61218316 30.79587221 -7.98461529 31.88505079 -12.3125 32.375 C-17.20301701 31.87765929 -18.57084492 30.42915508 -22 27 C-23.33548347 24.32903306 -23.24263562 22.16960576 -23.3125 19.1875 C-23.34988281 18.14980469 -23.38726562 17.11210937 -23.42578125 16.04296875 C-22.88629101 12.18734581 -21.76167512 10.71580012 -19 8 C-16.16015625 6.26953125 -16.16015625 6.26953125 -13.0625 4.8125 C-11.53302734 4.07966797 -11.53302734 4.07966797 -9.97265625 3.33203125 C-2.53665689 0 -2.53665689 0 0 0 Z " fill="#090304" transform="translate(316,237)"/>
<path d="M0 0 C0.99 0.66 1.98 1.32 3 2 C1.93921343 12.18952733 -6.52432364 20.49373803 -14 27 C-14.33 27 -14.66 27 -15 27 C-15.58403369 17.99290262 -15.57597871 10.46887675 -10 3 C-6.59892324 -0.0052907 -4.55529586 -0.48460594 0 0 Z " fill="#F05281" transform="translate(191,214)"/>
<path d="M0 0 C0.66 0 1.32 0 2 0 C2.18175781 0.54269531 2.36351562 1.08539063 2.55078125 1.64453125 C2.80214844 2.35996094 3.05351562 3.07539063 3.3125 3.8125 C3.67794922 4.87404297 3.67794922 4.87404297 4.05078125 5.95703125 C5.5831466 9.25508507 7.07175597 10.64478221 10.48046875 11.94921875 C11.37378906 12.19285156 12.26710937 12.43648437 13.1875 12.6875 C14.08855469 12.93886719 14.98960937 13.19023437 15.91796875 13.44921875 C16.60503906 13.63097656 17.29210937 13.81273437 18 14 C15.64510753 15.22819823 13.56875677 16.12577928 11 16.875 C7.08649005 18.34256623 4.97842482 20.04734961 3.08984375 23.81640625 C2.34764618 25.52518671 1.66877985 27.2611724 1 29 C-0.17371007 26.65257986 -1.21665711 24.41021121 -2.125 21.9375 C-4.39793944 18.37656155 -6.04726989 17.81816165 -9.96484375 16.640625 C-12.11493119 15.96382204 -14.00962019 15.05084929 -16 14 C-15.24074219 13.75765625 -14.48148438 13.5153125 -13.69921875 13.265625 C-12.70535156 12.93046875 -11.71148437 12.5953125 -10.6875 12.25 C-9.70136719 11.92515625 -8.71523437 11.6003125 -7.69921875 11.265625 C-3.52970329 9.31059894 -2.36154086 6.98948025 -0.8125 2.75 C-0.544375 1.8425 -0.27625 0.935 0 0 Z " fill="#F6316D" transform="translate(193,171)"/>
<path d="M0 0 C-3 2 -3 2 -5 2 C-5.39325819 8.97669157 -4.63096039 14.51656189 -2 21 C-5.73960184 22.3582089 -8.40529248 21.62928896 -12.1875 20.625 C-13.25355469 20.34914062 -14.31960938 20.07328125 -15.41796875 19.7890625 C-18 19 -18 19 -19 18 C-19.58419826 14.42178565 -19.62207132 11.98344801 -17.6484375 8.86328125 C-12.62638728 2.87885577 -8.10963616 -0.57925973 0 0 Z " fill="#0B0306" transform="translate(312,213)"/>
<path d="M0 0 C2.875 2.0625 2.875 2.0625 5 5 C5.06641554 8.85210127 4.87229157 10.99848005 2.3125 13.9375 C-0.73602877 15.33817538 -2.67926952 15.4842732 -6 15 C-8.375 13.4375 -8.375 13.4375 -10 11 C-10.5625 7.5 -10.5625 7.5 -10 4 C-6.99746894 0.65432253 -4.50513222 -1.01365475 0 0 Z " fill="#0C0406" transform="translate(445,186)"/>
<path d="M0 0 C0 7.59 0 15.18 0 23 C-1.65 23.33 -3.3 23.66 -5 24 C-8.55453864 19.98346563 -8.49780291 16.88635919 -8.359375 11.6953125 C-7.90045952 8.2534464 -4.37989478 0 0 0 Z " fill="#ED5180" transform="translate(316,238)"/>
<path d="M0 0 C0.66 1.32 1.32 2.64 2 4 C3.32 3.34 4.64 2.68 6 2 C6 2.33 6 2.66 6 3 C7.65 3.33 9.3 3.66 11 4 C11 4.33 11 4.66 11 5 C9.329375 5.2165625 9.329375 5.2165625 7.625 5.4375 C4.17857953 5.78372035 4.17857953 5.78372035 2 7 C1.34 6.67 0.68 6.34 0 6 C0 4.02 0 2.04 0 0 Z " fill="#4B1928" transform="translate(358,214)"/>
<path d="M0 0 C0.66 1.32 1.32 2.64 2 4 C3.32 3.34 4.64 2.68 6 2 C6 2.33 6 2.66 6 3 C7.65 3.33 9.3 3.66 11 4 C11 4.33 11 4.66 11 5 C9.329375 5.2165625 9.329375 5.2165625 7.625 5.4375 C4.17857953 5.78372035 4.17857953 5.78372035 2 7 C1.34 6.67 0.68 6.34 0 6 C0 4.02 0 2.04 0 0 Z " fill="#501B2B" transform="translate(227,214)"/>
<path d="M0 0 C2.31 0.66 4.62 1.32 7 2 C7 2.33 7 2.66 7 3 C6.04287109 3.07347656 6.04287109 3.07347656 5.06640625 3.1484375 C4.24011719 3.22320312 3.41382813 3.29796875 2.5625 3.375 C1.73878906 3.44460937 0.91507812 3.51421875 0.06640625 3.5859375 C-0.95646484 3.79089844 -0.95646484 3.79089844 -2 4 C-2.33 4.66 -2.66 5.32 -3 6 C-3 3 -3 3 -1.5 1.3125 C-0.7575 0.6628125 -0.7575 0.6628125 0 0 Z " fill="#32111B" transform="translate(262,216)"/>
</svg>
